<svg width="48" height="37" viewBox="0 0 48 37" fill="none" xmlns="http://www.w3.org/2000/svg">
<path d="M24.1738 1.29102C24.22 1.32511 24.2677 1.36628 24.3525 1.44043L24.3525 1.43945C24.3626 1.44831 24.3737 1.45705 24.3848 1.4668C25.5246 5.24302 27.6139 8.7309 29.5391 11.9512L29.5391 11.9502C29.8117 12.407 30.0803 12.8566 30.3457 13.3057L31.1328 14.6357L32.2695 13.5889C32.9091 12.9997 33.5804 12.4376 34.2598 11.8711C35.2312 11.0613 36.2959 10.1775 37.2607 9.18359L37.2607 9.18262C37.7117 8.71787 38.2246 8.28198 38.7725 7.81836L38.7734 7.81738C39.3547 7.32389 39.9743 6.79984 40.5283 6.20703C40.7254 5.9967 40.9004 5.78585 41.0469 5.61035L41.0479 5.61133C41.4753 5.10088 41.7742 4.75795 42.2383 4.50293L42.2393 4.50391C43.1486 4.00597 43.5882 3.3508 43.9355 2.85059L43.9365 2.85156C44.1893 2.48773 44.4037 2.18485 44.7256 1.89258C45.1686 1.4904 45.6331 1.4264 45.8906 1.5L45.8906 1.50098C46.1064 1.56324 46.3165 1.72785 46.4902 2.08203C46.6699 2.44826 46.7643 2.93892 46.748 3.43066L46.748 3.43262C46.7365 3.79781 46.7069 4.16219 46.6631 4.52637L46.6621 4.5293C46.5561 5.4244 46.3698 6.30643 46.1758 7.22266C45.9696 8.18976 45.7415 9.26155 45.6299 10.376L45.5889 10.8564C45.4738 12.573 45.0744 14.201 44.6553 15.8896L44.6553 15.8906C44.3107 17.2801 43.9324 18.8005 43.7393 20.4033L43.7393 20.4053C43.6904 20.8156 43.6415 21.28 43.5898 21.7754C43.3828 23.7561 43.1151 26.2853 42.5088 28.5527C41.9222 30.7464 41.1008 32.3627 40.0205 33.1318L39.8008 33.2744C39.2713 33.5852 38.6423 33.7796 37.9258 33.9609C34.3335 34.8696 31.0941 34.7741 26.8721 34.2832L26.8711 34.2832C24.4838 34.007 22.0105 34.319 19.7969 34.5947C18.421 34.7655 17.0625 34.9343 15.7451 34.9844L15.7422 34.9844L15.5 34.9941L15.4971 34.9941C15.2056 35.0064 14.9383 35.0176 14.6748 35.0176C14.2383 35.0176 13.8528 34.9863 13.4912 34.8965L13.4902 34.8965C13.0188 34.7784 12.5142 34.7291 12.1045 34.6865C11.5107 34.6248 11.0866 34.5746 10.7471 34.4551L10.7461 34.4551C10.705 34.4406 10.6678 34.4228 10.6318 34.4082L12.7627 33.8789L9.61328 32.5742C9.48855 31.8909 9.32254 30.8187 9.05957 29.1094L9.05957 29.1084C8.98717 28.639 8.91313 28.1561 8.85254 27.7744C8.80049 27.4465 8.74072 27.0735 8.7002 26.9229L8.69824 26.9131L8.5293 26.3281C7.66007 23.4097 6.38266 20.5368 5.18457 17.8389L5.18555 17.8389L5.05078 17.5361L5.05078 17.5352L4.62891 16.6445L4.2041 15.7578C3.22442 13.6896 2.33307 11.6447 1.78711 9.89551C1.47456 8.89409 1.294 8.04746 1.25684 7.38379C1.21839 6.69618 1.34368 6.38621 1.42969 6.27051C1.47615 6.20818 1.57784 6.08713 2.00684 6.11523L2.5957 6.15332C2.72073 6.20695 2.8579 6.28661 3.01074 6.40234C3.38245 6.68384 3.73061 7.07512 4.1582 7.55664L4.15918 7.55762C4.41888 7.84988 4.73555 8.20956 5.05078 8.48633L5.05176 8.4873C5.66612 9.02554 6.35534 9.52069 7.01758 9.97461L7.66699 10.415C8.1831 10.7635 8.67326 11.0939 9.13672 11.4355L9.1377 11.4365C11.0715 12.8593 12.7477 13.9133 14.3994 14.7354L14.4072 14.7393C14.4906 14.7801 14.5938 14.836 14.7422 14.917L14.7432 14.918C14.9271 15.018 15.2907 15.2159 15.6484 15.3691C15.8228 15.4438 16.0449 15.5295 16.2715 15.582C16.3845 15.6082 16.541 15.636 16.7178 15.6357C16.8798 15.6355 17.1816 15.6125 17.4863 15.4248L17.6279 15.3369L17.7412 15.2158C17.8705 15.0781 17.9514 14.9329 17.9805 14.8799C18.0225 14.8034 18.0599 14.7248 18.0908 14.6562C18.1533 14.5177 18.2166 14.3588 18.2734 14.21C18.3882 13.9095 18.5011 13.5818 18.5645 13.3994C18.6084 13.2735 18.6464 13.1685 18.6777 13.083C18.7109 12.9925 18.7254 12.9569 18.7266 12.9541L18.7285 12.9512C19.3409 11.6245 19.8889 10.2559 20.4053 8.96582L20.4043 8.96484C21.0576 7.33308 21.7134 5.70088 22.4873 4.14648C22.6548 3.81151 22.8878 3.48903 23.1582 3.12207L23.1582 3.12109C23.3105 2.91399 23.5069 2.65167 23.666 2.38867L23.667 2.38672C23.9147 1.97576 23.9289 1.48833 23.9346 1.42383L23.9355 1.41797C23.9401 1.36443 23.9433 1.32877 23.9473 1.29492C23.9476 1.29224 23.9479 1.28964 23.9482 1.28711C23.9686 1.2801 23.994 1.27071 24.0264 1.2627L24.0254 1.26172C24.0572 1.25385 24.0796 1.25215 24.0928 1.25098C24.0998 1.25036 24.1052 1.24999 24.1084 1.25C24.1149 1.25298 24.1353 1.26254 24.1738 1.29102ZM9.86719 33.459L9.86523 33.4521L9.86719 33.4521C9.86749 33.4544 9.8669 33.4567 9.86719 33.459Z" fill="#FDE56B" stroke="#111111" stroke-width="2.5"/>
</svg>
