<svg width="390" height="844" viewBox="0 0 390 844" fill="none" xmlns="http://www.w3.org/2000/svg">
<g clip-path="url(#clip0_174_1491)">
<mask id="mask0_174_1491" style="mask-type:luminance" maskUnits="userSpaceOnUse" x="0" y="0" width="390" height="844">
<path d="M390 0H0V844H390V0Z" fill="white"/>
</mask>
<g mask="url(#mask0_174_1491)">
<path d="M390 0H0V844H390V0Z" fill="#EED1A3"/>
<path opacity="0.64" fill-rule="evenodd" clip-rule="evenodd" d="M349.254 681.403C348.799 681.685 348.253 681.762 347.72 681.572C347.568 681.516 347.408 681.46 347.236 681.403H349.251H349.254ZM269.711 773.709C296.032 777.008 320.612 779.596 339.352 776.494C344.831 775.587 346.277 772.942 339.719 772.274C326.111 770.881 301.866 769.707 270.12 769.932C263.747 769.981 265.694 773.203 269.711 773.709ZM131.709 822.9C132.804 822.942 133.721 821.95 133.76 820.677C133.799 819.411 132.941 818.342 131.849 818.3C106.336 817.161 86.1962 816.661 71.4314 816.816C56.5139 816.971 46.9914 817.808 42.8672 819.334C41.8239 819.714 41.2487 821.008 41.5802 822.218C41.9084 823.428 43.0232 824.096 44.0664 823.709C47.8104 822.33 56.9429 821.564 71.4639 821.409C86.1344 821.261 106.219 821.754 131.712 822.893L131.709 822.9ZM193.683 705.788C167.362 702.489 142.782 699.901 124.042 702.996C118.563 703.903 117.117 706.548 123.675 707.216C137.283 708.608 161.528 709.776 193.274 709.558C199.65 709.516 197.7 706.287 193.683 705.788ZM266.867 550.33C293.189 553.629 317.768 556.217 336.508 553.122C341.987 552.215 343.434 549.571 336.875 548.902C323.267 547.51 299.022 546.335 267.276 546.56C260.9 546.603 262.85 549.831 266.867 550.33ZM128.865 599.514C129.961 599.557 130.877 598.565 130.916 597.299C130.952 596.033 130.097 594.964 129.005 594.922C103.493 593.782 83.3492 593.283 68.5877 593.437C53.6702 593.592 44.1477 594.429 40.0267 595.955C38.9834 596.335 38.4082 597.629 38.7364 598.839C39.0679 600.049 40.1794 600.717 41.2227 600.337C44.9667 598.959 54.0992 598.192 68.6202 598.037C83.2907 597.883 103.376 598.375 128.869 599.521L128.865 599.514ZM195.26 624.553C221.581 621.254 246.161 618.666 264.901 621.761C270.38 622.668 271.826 625.313 265.268 625.981C251.66 627.373 227.415 628.541 195.669 628.323C189.293 628.281 191.243 625.052 195.26 624.553ZM39.6887 314.024C40.1437 314.306 40.6929 314.383 41.2227 314.186C41.3754 314.13 41.5379 314.073 41.7069 314.024H39.6919H39.6887ZM119.232 406.337C92.9107 409.635 68.3309 412.224 49.5914 409.129C44.1119 408.222 42.6657 405.577 49.2242 404.909C62.8319 403.516 87.0769 402.349 118.823 402.567C125.196 402.609 123.249 405.837 119.232 406.337ZM257.231 455.528C256.135 455.57 255.219 454.578 255.18 453.312C255.141 452.039 255.996 450.977 257.091 450.935C282.603 449.789 302.747 449.296 317.508 449.451C332.426 449.606 341.948 450.45 346.069 451.969C347.113 452.349 347.688 453.643 347.36 454.853C347.028 456.062 345.917 456.731 344.873 456.351C341.129 454.972 331.997 454.206 317.476 454.051C302.805 453.896 282.72 454.396 257.227 455.535L257.231 455.528ZM195.26 338.409C221.581 335.11 246.161 332.522 264.901 335.617C270.38 336.524 271.826 339.168 265.268 339.837C251.66 341.229 227.415 342.404 195.669 342.179C189.293 342.136 191.243 338.908 195.26 338.409ZM122.076 179.04C95.7544 182.339 71.1747 184.927 52.4352 181.833C46.9589 180.925 45.5094 178.281 52.0679 177.613C65.6757 176.22 89.9207 175.053 121.667 175.271C128.043 175.313 126.093 178.541 122.076 179.04ZM260.078 228.232C258.982 228.274 258.066 227.282 258.027 226.016C257.988 224.75 258.846 223.681 259.938 223.639C285.45 222.499 305.594 222 320.359 222.155C335.276 222.31 344.799 223.154 348.92 224.673C349.963 225.053 350.538 226.347 350.21 227.556C349.882 228.766 348.767 229.434 347.724 229.055C343.98 227.676 334.847 226.909 320.326 226.755C305.656 226.6 285.571 227.092 260.078 228.239V228.232ZM193.683 253.27C167.362 249.972 142.782 247.383 124.042 250.478C118.563 251.385 117.117 254.03 123.675 254.698C137.283 256.091 161.528 257.265 193.274 257.04C199.65 256.998 197.7 253.77 193.683 253.27ZM269.711 35.0471C296.032 38.3457 320.612 40.934 339.352 37.8393C344.831 36.932 346.277 34.2875 339.719 33.6193C326.111 32.2267 301.866 31.0592 270.12 31.2772C263.747 31.3194 265.694 34.5477 269.711 35.0471ZM131.709 84.2382C132.804 84.2804 133.721 83.2887 133.76 82.0227C133.796 80.7567 132.941 79.6876 131.849 79.6454C106.336 78.499 86.1929 78.0067 71.4314 78.1614C56.5139 78.3161 46.9914 79.1531 42.8704 80.6793C41.8272 81.0591 41.2519 82.3533 41.5802 83.563C41.9117 84.7727 43.0232 85.4409 44.0664 85.0611C47.8104 83.6826 56.9429 82.9159 71.4639 82.7612C86.1344 82.6065 106.219 83.1058 131.712 84.2452L131.709 84.2382ZM390 838.036V844H322.517C321.49 843.733 320.459 843.451 319.429 843.163C260.533 832.719 220.064 837.431 181.242 844H137.598C146.88 842.565 155.918 840.969 164.924 839.379C209.212 831.558 252.755 823.864 320.417 835.876L320.69 835.947C336.979 840.533 352.664 842.375 367.744 841.475C375.313 841.018 382.733 839.871 390 838.036ZM390 815.177V819.812C359.157 824.145 327.681 820.488 297.079 816.936C255.784 812.139 216.089 807.525 182.237 823.195L180.778 818.926C215.53 802.841 255.69 807.504 297.469 812.357C328.003 815.902 359.414 819.545 390 815.177ZM390 682.845V687.304C275.999 697.306 230.584 690.673 223.596 681.403H235.511C252.534 691.384 348.543 685.476 390.003 682.845H390ZM390 679.322V680.046H383.896C353.603 670.242 320.417 673.737 286.539 677.31C277.026 678.316 267.462 679.322 257.881 680.046H135.749C165.893 678.984 196.514 677.95 229.927 678.323C248.68 678.534 267.611 676.536 286.325 674.56C322.471 670.748 357.838 667.027 390.003 679.314L390 679.322ZM390 591.37V596.012C358.25 600.984 325.78 597.221 294.232 593.557C252.937 588.76 213.242 584.154 179.39 599.817L177.931 595.547C212.683 579.462 252.843 584.125 294.622 588.978C326.101 592.636 358.514 596.399 390 591.37ZM390 446.94V451.005C359.346 444.633 329.657 442.333 300.927 444.127C264.927 443.86 241.319 446.926 230.113 453.333C233.324 467.463 347.044 460.156 390 457.434V461.823C259.827 473.442 217.639 463.651 219.849 452.672C219.345 444.317 294.027 432.852 390 446.933V446.94ZM390 219.236V223.132C360.353 217.196 331.61 215.1 303.771 216.831C267.77 216.563 244.162 219.63 232.956 226.037C236.099 239.865 345.075 233.162 390 230.321V234.78C262.057 245.998 220.499 236.278 222.696 225.376C222.199 217.105 295.402 205.781 390 219.229V219.236ZM390 113.75V118.371C356.632 121.037 331.903 117.97 308.018 115.009C273.939 110.782 241.588 106.773 188.022 120.2C186.949 120.467 185.893 119.672 185.659 118.434C185.428 117.189 186.111 115.966 187.183 115.691C241.358 102.117 274.027 106.161 308.438 110.43C332.198 113.377 356.807 116.43 389.996 113.757L390 113.75ZM390 76.5226V81.1576C359.157 85.4831 327.681 81.8328 297.079 78.281C255.784 73.4842 216.089 68.8774 182.237 84.5406L180.778 80.2714C215.53 64.1862 255.69 68.8493 297.469 73.7023C328.003 77.2471 359.411 80.8974 390 76.5226ZM167.823 -4.67445e-05H390V5.48595C365.68 6.76602 330.515 5.95015 301.905 2.26469C244.169 2.46162 215.566 5.29605 167.823 -0.00708008V-4.67445e-05ZM-0.000335937 13.0327V8.59469C73.9112 -4.14971 131.248 8.41182 169.191 9.72002C257.088 12.7584 315.672 10.3319 390 16.2962V18.2093C349.631 17.8717 317.733 18.3992 291.512 17.105C252.908 14.6012 215.302 13.6868 177.154 14.8262C162.552 14.6715 126.1 12.2098 67.7914 7.44122C41.6094 5.31012 15.8727 8.19379 -0.000335937 13.0327ZM-0.000335937 24.3916V21.4938C31.8789 9.68485 66.8684 13.3633 102.618 17.1402C121.335 19.1166 140.263 21.114 159.016 20.903C193.553 20.5162 225.111 21.6345 256.239 22.7317C269.818 23.21 283.312 23.6882 296.894 24.0329C319.874 24.0329 339.878 24.8558 356.427 25.545C370.048 26.1077 381.306 26.5719 390.003 26.4101V29.1602C381.192 29.343 369.924 28.8718 356.343 28.3091C339.914 27.6269 320.053 26.804 296.894 26.804H296.871C283.218 26.4523 269.737 25.967 256.178 25.4888C225.059 24.3916 193.511 23.2733 159.038 23.6601C140.169 23.8711 121.179 21.8666 102.407 19.8902C66.6344 16.1133 31.6352 12.4208 -0.000335937 24.3916ZM-0.000335937 40.6034V33.563C42.1879 30.2644 80.6874 37.9096 124.826 36.292C168.47 34.6954 196.387 31.6851 247.562 39.2671C326.943 51.0127 352.225 40.09 389.996 39.7172V49.5568C359.147 52.9469 336.417 52.3842 309.127 51.7372C242.456 50.1547 229.677 38.409 161.144 50.8158C143.338 54.0371 119.726 53.5447 106.739 49.4232C65.5749 40.6245 33.6664 41.5951 -0.000335937 40.6034ZM-0.000335937 63.1593V59.4668C13.1654 60.2475 25.8274 58.2922 38.8729 56.2737C60.7584 52.8906 83.7229 49.3529 112.17 57.9687C124.299 60.0717 137.263 60.9719 151.066 60.6695C164.866 60.3671 179.552 58.8479 195.12 56.126C200.512 54.2621 207.948 53.2493 217.428 53.0946C226.902 52.9399 238.446 53.6362 252.053 55.1835C290.566 58.9112 322.445 60.8524 347.685 61.0071C364.848 61.1126 378.953 60.3952 390.003 58.8549V62.5544C378.859 64.0736 364.747 64.784 347.668 64.6785C322.253 64.5238 290.293 62.5826 251.79 58.8549H251.771C238.251 57.3146 226.814 56.6183 217.464 56.773C208.201 56.9207 201.009 57.8984 195.89 59.6989L195.666 59.7622C179.988 62.5122 165.135 64.0385 151.115 64.3479C137.088 64.6574 123.935 63.7431 111.66 61.6049L111.491 61.5627C83.5864 53.0805 60.8982 56.5831 39.2824 59.924C26.1232 61.9566 13.3539 63.9259 -0.000335937 63.1593ZM-0.000335937 90.6385V86.2216C43.7447 88.9927 155.645 96.0683 158.83 82.0508C147.624 75.6435 124.016 72.5699 88.0162 72.8442C59.6177 71.0718 30.2799 73.2943 -0.000335937 79.5048V75.5028C95.4619 61.6542 169.594 73.0693 169.091 81.3967C171.294 92.3406 129.34 102.11 -0.000335937 90.6385ZM-0.000335937 111.295V103.833C73.6674 116.831 119.694 108.707 164.924 100.717C209.212 92.8962 252.755 85.2018 320.42 97.2147L320.693 97.285C336.982 101.871 352.667 103.721 367.747 102.813C375.316 102.356 382.736 101.21 390.003 99.3739V106.9C382.827 108.63 375.518 109.727 368.069 110.17C352.456 111.106 336.241 109.214 319.429 104.501C252.733 92.6712 209.667 100.281 165.87 108.018C120.35 116.057 74.0347 124.23 -0.000335937 111.295ZM-0.000335937 129.336V126.565C12.4277 127.81 23.2989 128.738 32.6102 129.35C46.5722 130.264 56.9884 130.468 63.8589 129.955C79.3452 127.697 93.9734 126.065 107.74 125.067C121.478 124.068 134.358 123.695 146.363 123.955H146.406C189.332 126.607 219.638 123.969 246.259 121.663C277.683 118.934 303.992 116.648 339.885 123.969H339.904C352.628 126.818 364.25 128.084 374.767 127.782C380.129 127.627 385.206 127.064 390 126.087V128.886C385.212 129.835 380.155 130.384 374.822 130.539C364.13 130.848 352.345 129.568 339.475 126.691C303.868 119.433 277.696 121.705 246.434 124.42C219.755 126.734 189.38 129.371 146.282 126.712C134.381 126.459 121.579 126.832 107.887 127.831C94.2074 128.83 79.6247 130.454 64.1417 132.712H64.0702C57.1152 133.246 46.5819 133.05 32.4769 132.121C23.2112 131.516 12.3822 130.588 -0.00358594 129.35L-0.000335937 129.336ZM-0.000335937 149.381V142.791C33.8647 142.144 65.8414 144.767 107.24 135.926C120.227 131.805 139.168 131.066 161.726 132.48C230.987 136.833 243.038 133.148 309.708 131.558C336.83 130.911 359.446 130.356 390 133.675V143.424C352.576 142.312 327.245 129.132 248.274 140.821C184.544 150.253 156.763 146.49 89.8817 146.265C60.5602 150.042 24.3617 150.802 -0.000335937 149.388V149.381ZM-0.000335937 162.217V160.437C75.1754 154.29 133.997 156.78 222.595 153.713C260.23 152.412 316.953 140.048 390 152.286V156.499C374.023 151.983 349.215 149.381 323.992 151.442C265.687 156.21 229.232 158.665 214.633 158.827C176.484 157.687 138.875 158.595 100.275 161.098C73.6674 162.414 41.2194 161.851 -0.000335937 162.217ZM-0.000335937 173.104V170.361C8.91766 170.636 20.7867 170.143 35.3629 169.538C51.9119 168.856 71.9157 168.026 94.8964 168.026C108.475 167.682 121.972 167.203 135.547 166.725C166.676 165.628 198.233 164.51 232.768 164.896C251.52 165.107 270.452 163.11 289.168 161.134C324.252 157.434 358.601 153.819 390 164.847V167.731C358.835 156.562 324.48 160.177 289.383 163.877C270.611 165.86 251.621 167.865 232.752 167.646C198.279 167.26 166.731 168.378 135.612 169.475C122.053 169.953 108.572 170.432 94.9192 170.783H94.8964C71.7369 170.783 51.8794 171.613 35.4474 172.296C20.9264 172.9 9.05741 173.393 -0.000335937 173.097V173.104ZM-0.000335937 193.346V183.697C38.7787 183.732 63.5957 195.189 144.222 183.253C195.396 175.679 223.314 178.682 266.958 180.278C310.475 181.868 348.507 174.462 389.996 177.409V184.639C356.983 185.553 325.477 184.766 285.044 193.396C272.057 197.517 248.446 198.009 230.639 194.788C162.106 182.388 149.327 194.127 82.6569 195.71C54.8402 196.371 31.7619 196.94 -0.000335937 193.332V193.346ZM-0.000335937 206.295V202.588C11.3032 204.304 26.0062 205.106 44.1087 205.001C69.3482 204.846 101.224 202.905 139.737 199.177C153.344 197.637 164.888 196.94 174.362 197.095C183.842 197.25 191.278 198.263 196.67 200.126C212.238 202.848 226.921 204.368 240.721 204.67C254.52 204.972 267.488 204.072 279.617 201.969C308.064 193.353 331.028 196.898 352.914 200.274C365.371 202.194 377.474 204.065 390 203.552V207.244C377.289 207.751 365.072 205.866 352.504 203.924C330.889 200.591 308.2 197.088 280.296 205.563L280.13 205.605C267.855 207.744 254.702 208.658 240.675 208.348C226.655 208.039 211.802 206.506 196.124 203.763L195.9 203.699C190.781 201.899 183.589 200.921 174.326 200.774C164.976 200.626 153.539 201.315 140.019 202.848H140C101.497 206.583 69.5367 208.531 44.1217 208.679C26.1167 208.784 11.4072 207.99 -0.000335937 206.295ZM-0.000335937 224.891V220.249C31.1509 225.024 63.1894 221.304 94.3179 217.689C136.097 212.836 176.257 208.173 211.009 224.258L209.55 228.527C175.698 212.857 136.002 217.471 94.7079 222.267C63.5144 225.89 31.4109 229.617 -0.000335937 224.891ZM-0.000335937 250.443V242.896C7.83541 245.006 15.8499 246.314 24.0432 246.807C39.1199 247.714 54.8044 245.871 71.0967 241.278L71.3697 241.208C139.031 229.202 182.578 236.89 226.866 244.711C271.729 252.63 317.372 260.683 390.003 248.136V255.598C317.008 268.09 271.072 259.987 225.92 252.011C182.123 244.275 139.054 236.672 72.3609 248.495C55.5487 253.207 39.3344 255.092 23.7214 254.156C15.6549 253.671 7.74766 252.433 0.00291406 250.443H-0.000335937ZM-0.000335937 270.031V267.253C3.24641 267.703 6.61666 267.977 10.1039 268.075C20.6209 268.378 32.2429 267.112 44.9667 264.27H44.9862C80.8792 256.949 107.188 259.235 138.612 261.956C165.233 264.263 195.542 266.894 238.465 264.249H238.507C250.516 263.996 263.393 264.362 277.13 265.368C290.897 266.366 305.526 268.005 321.012 270.256C327.882 270.769 338.299 270.572 352.261 269.651C362.83 268.955 375.41 267.85 390 266.345V269.116C375.449 270.622 362.914 271.719 352.391 272.408C338.286 273.329 327.752 273.533 320.797 273.006H320.726C305.243 270.741 290.66 269.123 276.981 268.118C263.285 267.119 250.484 266.753 238.582 267.006C195.484 269.665 165.109 267.035 138.43 264.714C107.172 261.999 80.9962 259.727 45.3924 266.985C32.5224 269.855 20.7379 271.142 10.0454 270.826C6.58091 270.727 3.23341 270.46 -0.00358594 270.024L-0.000335937 270.031ZM-0.000335937 285.617V276.023C31.4629 272.485 54.4307 273.055 82.0784 273.709C148.749 275.299 160.8 278.977 230.061 274.631C252.619 273.217 271.56 273.948 284.547 278.07C325.217 286.756 356.794 284.379 390 284.899V291.623C365.68 292.903 330.515 292.087 301.905 288.402C235.027 288.627 207.242 292.397 143.516 282.965C63.2934 271.093 38.4244 284.885 0.00291406 285.61L-0.000335937 285.617ZM-0.000335937 299.177V294.739C73.9112 281.994 131.248 294.549 169.191 295.864C257.088 298.903 315.672 296.476 390 302.44V304.353C349.631 304.016 317.733 304.543 291.512 303.249C252.908 300.745 215.302 299.831 177.154 300.97C162.552 300.816 126.1 298.354 67.7914 293.585C41.6094 291.447 15.8694 294.331 -0.00358594 299.17L-0.000335937 299.177ZM-0.000335937 308.763V307.638C31.8822 295.822 66.8684 299.507 102.618 303.277C121.335 305.254 140.263 307.251 159.016 307.04C192.429 306.667 223.05 307.701 253.194 308.763H131.062C121.485 308.039 111.917 307.026 102.404 306.027C68.5259 302.454 35.3402 298.959 5.04691 308.763H-0.000335937ZM-0.000335937 320.024V315.536C42.0157 318.195 136.555 323.92 153.432 314.024H165.343C158.375 323.266 113.223 329.884 -0.00358594 320.017L-0.000335937 320.024ZM-0.000335937 340.92V333.464C72.0132 345.759 117.432 337.741 162.077 329.856C206.365 322.035 249.908 314.341 317.573 326.354L317.846 326.424C334.135 331.01 349.82 332.852 364.9 331.952C373.46 331.439 381.829 330.039 390 327.753V335.314C381.914 337.466 373.655 338.803 365.222 339.309C349.609 340.245 333.394 338.36 316.582 333.647C249.889 321.817 206.82 329.427 163.023 337.157C118.092 345.09 72.3804 353.158 -0.000335937 340.927V340.92ZM-0.000335937 354.367V351.596C14.1372 353.052 26.3669 354.114 36.6792 354.796C50.6412 355.711 61.0574 355.915 67.9279 355.401C83.4142 353.144 98.0424 351.512 111.809 350.506C125.547 349.507 138.424 349.135 150.432 349.388H150.475C193.401 352.039 223.71 349.409 250.328 347.095C281.752 344.366 308.061 342.08 343.954 349.402H343.973C356.697 352.25 368.319 353.516 378.836 353.214C382.707 353.101 386.425 352.778 390 352.236V355.022C386.438 355.542 382.736 355.859 378.894 355.971C368.202 356.281 356.417 355 343.547 352.131C307.94 344.872 281.768 347.144 250.51 349.859C223.83 352.173 193.456 354.811 150.358 352.152C138.456 351.899 125.654 352.272 111.959 353.263C98.2797 354.262 83.6969 355.887 68.2139 358.144H68.1424C61.1874 358.679 50.6542 358.475 36.5492 357.554C26.2824 356.878 14.0982 355.816 -0.00358594 354.367H-0.000335937ZM-0.000335937 376.825V370.031C32.8214 369.574 64.1547 371.803 104.396 363.215C117.383 359.101 136.324 358.355 158.882 359.776C228.143 364.123 240.194 360.437 306.865 358.855C334.818 358.194 357.99 357.617 390 361.288V370.776C350.97 370.284 326.384 356.133 245.427 368.111C181.701 377.542 153.916 373.779 87.0347 373.547C58.8344 377.177 24.2707 378.028 -0.00358594 376.818L-0.000335937 376.825ZM-0.000335937 389.485V387.494C73.8267 381.636 132.271 384.027 219.748 381.003C257.874 379.687 315.578 367.013 390 380.06V384.639C374.227 379.603 347.922 376.536 321.148 378.724C262.843 383.492 226.388 385.954 211.786 386.109C173.637 384.969 136.032 385.877 97.4282 388.388C71.4379 389.675 39.8674 389.161 -0.000335937 389.485ZM-0.000335937 400.457V397.707C8.54391 397.819 19.4412 397.369 32.5159 396.828C49.0649 396.138 69.0687 395.308 92.0494 395.308C105.628 394.964 119.125 394.486 132.704 394.007C163.832 392.903 195.39 391.785 229.927 392.179C248.68 392.39 267.611 390.392 286.325 388.416C322.471 384.604 357.838 380.883 390.003 393.17V396.075C358.091 383.619 322.708 387.347 286.539 391.159C267.767 393.142 248.777 395.14 229.908 394.929C195.435 394.542 163.887 395.66 132.769 396.757C119.21 397.236 105.729 397.714 92.0754 398.059H92.0527C68.8964 398.059 49.0357 398.888 32.6037 399.571C19.5582 400.112 8.65116 400.569 0.00291406 400.443L-0.000335937 400.457ZM-0.000335937 420.952V411.007C37.1927 411.57 62.7377 422.183 141.378 410.543C192.552 402.968 220.47 405.971 264.114 407.568C308.623 409.192 347.395 401.406 390 404.916V411.844C355.943 412.892 323.797 411.809 282.2 420.692C269.213 424.813 245.602 425.306 227.795 422.084C159.263 409.685 146.484 421.423 79.8132 423.006C52.8349 423.646 30.3124 424.208 -0.000335937 420.945V420.952ZM-0.000335937 433.985V430.285C10.8872 431.727 24.6412 432.395 41.2617 432.297C66.5012 432.142 98.3772 430.201 136.89 426.473C150.497 424.933 162.041 424.237 171.515 424.391C180.995 424.546 188.431 425.559 193.823 427.423C209.391 430.145 224.074 431.664 237.877 431.966C251.68 432.269 264.644 431.375 276.773 429.265C305.22 420.65 328.185 424.194 350.07 427.57C363.467 429.638 376.457 431.643 390.003 430.693V434.386C376.262 435.321 363.168 433.303 349.661 431.221C328.042 427.887 305.353 424.384 277.452 432.859L277.283 432.902C265.008 435.04 251.855 435.954 237.828 435.645C223.808 435.335 208.955 433.809 193.277 431.059L193.053 430.996C187.934 429.195 180.742 428.217 171.479 428.07C162.129 427.915 150.692 428.604 137.172 430.145H137.153C98.6502 433.879 66.6897 435.82 41.2747 435.975C24.7322 436.074 10.9717 435.413 -0.000335937 433.992V433.985ZM-0.000335937 452.588V447.953C30.2539 452.089 61.2914 448.488 91.4742 444.985C133.253 440.132 173.413 435.469 208.165 451.554L206.706 455.823C172.854 440.153 133.159 444.767 91.8642 449.564C61.6099 453.08 30.5042 456.688 -0.000335937 452.588ZM-0.000335937 478.435V470.924C6.92866 472.612 13.9942 473.667 21.1962 474.103C36.2729 475.01 51.9607 473.167 68.2497 468.575L68.5227 468.504C136.184 456.498 179.731 464.193 224.019 472.014C269.464 480.039 315.714 488.198 390 474.94V482.402C315.347 495.597 268.807 487.382 223.073 479.308C179.276 471.571 136.207 463.961 69.5139 475.791C52.7017 480.503 36.4907 482.388 20.8744 481.453C13.7927 481.031 6.83441 480.018 -0.000335937 478.428V478.435ZM-0.000335937 489.731V485.11C32.6557 487.635 56.9917 484.618 80.5022 481.706C114.913 477.437 147.582 473.393 201.756 486.967C202.829 487.234 203.511 488.465 203.281 489.71C203.05 490.955 201.99 491.743 200.918 491.475C147.355 478.049 115.001 482.058 80.9214 486.285C57.2939 489.218 32.8344 492.242 -0.000335937 489.731ZM-0.000335937 500.365V497.566C4.48141 498.41 9.20692 498.909 14.1729 499.057C24.6899 499.36 36.3119 498.094 49.0357 495.252H49.0552C84.9482 487.93 111.257 490.209 142.681 492.938C169.302 495.245 199.611 497.876 242.534 495.231H242.576C254.585 494.971 267.462 495.344 281.199 496.342C294.966 497.348 309.595 498.98 325.081 501.238C331.951 501.751 342.368 501.554 356.33 500.633C365.904 500.007 377.13 499.043 390 497.742V500.513C377.169 501.807 365.989 502.771 356.46 503.39C342.355 504.318 331.821 504.515 324.866 503.988H324.798C309.315 501.73 294.732 500.098 281.053 499.099C267.358 498.101 254.556 497.728 242.658 497.981C199.559 500.647 169.185 498.009 142.506 495.688C111.247 492.973 85.0717 490.702 49.4647 497.96C36.5947 500.83 24.8102 502.117 14.1177 501.807C9.17766 501.667 4.47166 501.181 -0.000335937 500.358V500.365ZM-0.000335937 514.678V504.853C30.0199 501.66 52.4254 502.215 79.2314 502.848C145.902 504.438 157.953 508.123 227.214 503.77C249.772 502.356 268.713 503.094 281.7 507.209C323.531 516.141 355.741 513.37 390 514.094V520.6C365.638 522.105 328.809 521.374 299.058 517.541C232.18 517.766 204.395 521.536 140.666 512.104C62.4387 500.52 36.8482 513.356 -0.00358594 514.671L-0.000335937 514.678ZM-0.000335937 527.493V523.4C72.5364 511.457 128.891 523.709 166.348 525.003C255.362 528.077 314.317 525.552 390 531.811V533.513C348.279 533.127 315.5 533.71 288.668 532.381C250.064 529.877 212.459 528.963 174.31 530.102C159.708 529.948 123.256 527.486 64.9509 522.717C40.2802 520.706 16.0027 523.146 0.00291406 527.486L-0.000335937 527.493ZM-0.000335937 538.641V535.764C31.1119 525.179 65.0842 528.759 99.7747 532.416C118.491 534.386 137.419 536.39 156.175 536.179C190.713 535.792 222.267 536.911 253.396 538.008C266.971 538.486 280.468 538.964 294.047 539.316C317.027 539.316 337.031 540.139 353.58 540.828C368.738 541.461 380.971 541.968 390 541.616V544.359C380.818 544.725 368.589 544.218 353.496 543.592C337.067 542.91 317.206 542.087 294.047 542.087H294.024C280.371 541.735 266.89 541.257 253.331 540.772C222.212 539.675 190.664 538.556 156.191 538.943C137.322 539.154 118.332 537.15 99.5602 535.166C64.8599 531.509 30.8844 527.929 -0.000335937 538.641ZM-0.000335937 555.957V548.628C41.0797 545.878 78.8349 553.144 121.982 551.568C165.629 549.971 193.544 546.968 244.718 554.543C326.075 566.584 350.606 554.81 390 554.986V564.509C357.688 568.258 334.405 567.674 306.283 567.006C239.612 565.417 226.833 553.678 158.301 566.085C140.494 569.306 116.883 568.814 103.896 564.692C63.8914 556.154 32.6297 556.829 -0.000335937 555.964V555.957ZM-0.000335937 578.562V574.877C12.1514 575.242 23.9229 573.428 36.0292 571.564C57.9147 568.181 80.8792 564.636 109.326 573.259C121.455 575.362 134.42 576.262 148.222 575.96C162.022 575.657 176.709 574.138 192.273 571.416C197.665 569.552 205.101 568.539 214.581 568.385C224.055 568.23 235.599 568.926 249.206 570.474C287.719 574.194 319.598 576.143 344.838 576.297C363.509 576.41 378.566 575.552 390.003 573.716V577.43C378.452 579.237 363.392 580.088 344.825 579.976C319.41 579.821 287.449 577.88 248.946 574.145H248.927C235.407 572.605 223.97 571.908 214.62 572.063C205.357 572.211 198.165 573.189 193.046 574.989L192.822 575.052C177.144 577.802 162.292 579.329 148.271 579.638C134.244 579.948 121.091 579.033 108.816 576.895L108.65 576.853C80.7459 568.371 58.0577 571.873 36.4419 575.214C24.2219 577.106 12.3367 578.935 0.00291406 578.576L-0.000335937 578.562ZM-0.000335937 606.161V601.674C45.5484 604.557 152.867 611.049 155.983 597.327C144.777 590.92 121.169 587.846 85.1692 588.113C57.6612 586.404 29.2692 588.43 -0.000335937 594.204V590.364C94.0872 577.148 166.744 588.423 166.247 596.666C168.434 607.532 127.114 617.231 -0.000335937 606.161ZM-0.000335937 627.064V619.602C72.0132 631.896 117.432 623.878 162.077 615.993C206.365 608.172 249.908 600.485 317.573 612.491L317.846 612.561C334.135 617.147 349.82 618.997 364.9 618.089C373.46 617.576 381.829 616.176 390 613.89V621.451C381.914 623.611 373.655 624.94 365.222 625.446C349.609 626.382 333.394 624.497 316.582 619.784C249.889 607.954 206.82 615.564 163.023 623.301C118.092 631.235 72.3804 639.295 -0.000335937 627.071V627.064ZM-0.000335937 640.505V637.733C14.1372 639.189 26.3669 640.251 36.6792 640.934C50.6412 641.848 61.0574 642.052 67.9279 641.531C83.4142 639.274 98.0424 637.642 111.809 636.643C125.547 635.645 138.424 635.272 150.432 635.532H150.475C193.401 638.184 223.71 635.553 250.328 633.239C281.752 630.51 308.061 628.231 343.954 635.546H343.973C356.697 638.395 368.319 639.661 378.836 639.358C382.707 639.246 386.425 638.922 390 638.381V641.166C386.438 641.686 382.736 642.003 378.894 642.115C368.202 642.425 356.417 641.145 343.547 638.275C307.94 631.017 281.768 633.288 250.51 636.003C223.83 638.317 193.456 640.955 150.358 638.296C138.456 638.043 125.654 638.416 111.959 639.407C98.2797 640.406 83.6969 642.031 68.2139 644.288H68.1424C61.1874 644.823 50.6542 644.626 36.5492 643.698C26.2824 643.023 14.0982 641.96 -0.00358594 640.512L-0.000335937 640.505ZM-0.000335937 662.969V656.175C32.8214 655.718 64.1547 657.947 104.396 649.36C117.383 645.238 136.324 644.499 158.882 645.92C228.143 650.267 240.194 646.581 306.865 644.999C334.818 644.331 357.99 643.761 390 647.432V656.92C350.97 656.428 326.384 642.27 245.427 654.255C181.701 663.686 153.916 659.924 87.0347 659.692C58.8344 663.321 24.2707 664.172 -0.00358594 662.962L-0.000335937 662.969ZM-0.000335937 675.629V673.639C73.8267 667.787 132.271 670.171 219.748 667.147C257.874 665.832 315.578 653.158 390 666.204V670.783C374.227 665.747 347.922 662.681 321.148 664.868C262.843 669.637 226.388 672.098 211.786 672.253C173.637 671.114 136.032 672.028 97.4282 674.532C71.4379 675.819 39.8674 675.305 -0.000335937 675.629ZM-0.000335937 702.961V695.414C7.83541 697.524 15.8499 698.832 24.0432 699.324C39.1199 700.225 54.8044 698.389 71.0967 693.796L71.3697 693.726C139.031 681.72 182.578 689.407 226.866 697.228C271.729 705.155 317.372 713.208 390.003 700.654V708.116C317.008 720.6 271.072 712.505 225.92 704.529C182.123 696.792 139.054 689.189 72.3609 701.019C55.5487 705.732 39.3344 707.624 23.7214 706.681C15.6549 706.196 7.74766 704.958 0.00291406 702.961H-0.000335937ZM-0.000335937 722.548V719.77C3.24641 720.22 6.61666 720.495 10.1039 720.593C20.6209 720.896 32.2429 719.63 44.9634 716.788H44.9829C80.8759 709.459 107.185 711.745 138.609 714.474C165.23 716.788 195.539 719.419 238.462 716.767H238.504C250.513 716.507 263.389 716.88 277.127 717.885C290.894 718.884 305.522 720.516 321.009 722.773C327.879 723.287 338.295 723.09 352.257 722.169C362.83 721.472 375.41 720.368 389.996 718.863V721.634C375.449 723.139 362.911 724.243 352.387 724.933C338.282 725.861 327.749 726.058 320.794 725.531H320.723C305.24 723.273 290.657 721.641 276.978 720.642C263.282 719.644 250.48 719.271 238.579 719.531C195.481 722.19 165.106 719.552 138.427 717.238C107.168 714.523 80.9962 712.252 45.3892 719.51C32.5192 722.38 20.7347 723.66 10.0422 723.357C6.57766 723.259 3.22691 722.991 -0.00683594 722.555L-0.000335937 722.548ZM-0.000335937 738.134V728.541C31.4629 725.003 54.4339 725.573 82.0784 726.227C148.749 727.816 160.8 731.502 230.061 727.148C252.619 725.734 271.56 726.466 284.547 730.588C325.217 739.267 356.794 736.889 390 737.417V744.141C365.68 745.421 330.515 744.605 301.905 740.919C235.027 741.144 207.242 744.914 143.516 735.483C63.2934 723.61 38.4244 737.403 0.00291406 738.127L-0.000335937 738.134ZM-0.000335937 751.695V747.256C73.9112 734.512 131.248 747.074 169.191 748.382C257.088 751.42 315.672 748.994 390 754.958V756.871C349.631 756.533 317.733 757.061 291.512 755.767C252.908 753.263 215.302 752.349 177.154 753.495C162.552 753.34 126.096 750.879 67.7914 746.11C41.6062 743.972 15.8694 746.856 -0.00358594 751.695H-0.000335937ZM-0.000335937 763.053V760.156C31.8789 748.347 66.8684 752.032 102.618 755.802C121.335 757.778 140.263 759.776 159.016 759.565C193.553 759.178 225.111 760.296 256.239 761.394C269.815 761.872 283.312 762.35 296.894 762.702C319.874 762.702 339.878 763.525 356.427 764.214C370.048 764.777 381.306 765.248 390.003 765.079V767.829C381.192 768.012 369.924 767.541 356.343 766.978C339.914 766.296 320.053 765.473 296.897 765.473H296.874C283.221 765.121 269.74 764.643 256.181 764.158C225.062 763.06 193.518 761.942 159.045 762.329C140.175 762.54 121.186 760.542 102.414 758.559C66.6442 754.789 31.6449 751.097 0.00941406 763.067L-0.000335937 763.053ZM-0.000335937 779.258V772.211C42.1879 768.912 80.6874 776.557 124.826 774.94C168.473 773.343 196.387 770.34 247.565 777.915C326.946 789.668 352.228 778.738 390 778.365V788.205C359.154 791.595 336.42 791.032 309.13 790.385C242.459 788.795 229.68 777.064 161.148 789.464C143.341 792.685 119.73 792.192 106.743 788.071C65.5749 779.286 33.6664 780.25 -0.000335937 779.258ZM-0.000335937 801.821V798.129C13.1654 798.909 25.8274 796.954 38.8729 794.935C60.7584 791.559 83.7229 788.015 112.17 796.631C124.296 798.733 137.263 799.634 151.066 799.331C164.869 799.029 179.552 797.51 195.12 794.788C200.512 792.924 207.948 791.911 217.428 791.756C226.902 791.602 238.442 792.298 252.053 793.845C290.566 797.566 322.445 799.514 347.681 799.669C364.845 799.774 378.95 799.057 390.003 797.517V801.216C378.859 802.743 364.747 803.446 347.668 803.347C322.253 803.193 290.293 801.251 251.79 797.524H251.771C238.251 795.983 226.814 795.287 217.464 795.442C208.201 795.59 201.009 796.567 195.89 798.368L195.666 798.431C179.988 801.181 165.135 802.707 151.115 803.017C137.088 803.326 123.935 802.412 111.66 800.274L111.491 800.232C83.5897 791.749 60.9014 795.252 39.2824 798.593C26.1232 800.625 13.3539 802.595 -0.000335937 801.828V801.821ZM-0.000335937 829.293V824.876C43.7414 827.655 155.645 834.723 158.83 820.706C147.621 814.298 124.016 811.225 88.0162 811.499C59.6177 809.727 30.2799 811.956 -0.000335937 818.16V814.158C95.4619 800.309 169.594 811.724 169.091 820.051C171.297 831.002 129.34 840.765 -0.000335937 829.293ZM-0.000335937 844V842.495C3.04166 843.029 6.04141 843.536 8.99241 844H-0.000335937Z" fill="#D4A471"/>
</g>
</g>
<defs>
<clipPath id="clip0_174_1491">
<rect width="390" height="844" fill="white"/>
</clipPath>
</defs>
</svg>
