<svg width="11" height="11" viewBox="0 0 11 11" fill="none" xmlns="http://www.w3.org/2000/svg">
<path d="M1.47318 8.40885C1.47318 7.70023 1.55076 7.04864 1.45752 6.42254C1.24238 4.97816 1.37042 3.5324 1.34687 2.08823C1.34026 1.68222 1.41456 1.25677 1.54232 0.870195C1.86663 -0.110852 2.20652 -0.0982898 3.11824 0.121965C3.76838 0.279031 4.37649 0.608356 5.00507 0.856602C6.39981 1.4074 7.80337 1.93712 9.18713 2.51428C9.70284 2.72944 10.1969 3.01594 10.5854 3.44487C10.8714 3.76075 10.9362 4.17884 10.6401 4.51247C10.1731 5.0385 9.68355 5.55409 9.14578 6.00526C8.44547 6.59293 7.70381 7.13515 6.952 7.65663C6.21233 8.16961 5.44507 8.64412 4.67582 9.1124C4.18661 9.41028 3.66238 9.65044 3.17027 9.94393C2.32489 10.4482 1.54026 10.0643 1.47518 9.09456C1.46144 8.88976 1.47318 8.68327 1.47318 8.40885ZM3.05219 1.5436C2.97455 1.40197 2.95394 1.15429 2.70598 1.27799C2.59072 1.33552 2.46199 1.4812 2.44646 1.6008C2.40899 1.89112 2.39937 2.19589 2.45127 2.48154C2.47249 2.59839 2.66795 2.72779 2.80827 2.76864C3.02769 2.83242 2.93226 2.60463 2.99164 2.51423C3.18064 2.2263 3.10368 1.91558 3.05219 1.5436ZM4.28794 7.85964C4.22052 7.85964 4.1518 7.85112 4.08583 7.86107C3.74276 7.91277 3.56475 8.08873 3.68318 8.29929C3.751 8.41984 3.94954 8.52948 4.09097 8.53167C4.31389 8.53511 4.43889 8.20579 4.28794 7.85964ZM7.5146 6.00602C7.54673 6.03821 7.57838 6.07097 7.61119 6.10247C7.91897 6.39727 8.09919 6.12829 8.26195 5.92947C8.32778 5.84901 8.34159 5.59987 8.30363 5.58127C8.06711 5.46518 7.83157 5.47925 7.65802 5.72296C7.61901 5.77781 7.56286 5.82045 7.5146 6.00602ZM2.84624 3.53453C2.7668 3.56817 2.67008 3.58424 2.61281 3.6404C2.5546 3.69758 2.49555 3.80324 2.5108 3.87106C2.52426 3.93094 2.63615 4.00219 2.71036 4.00941C3.10684 4.04812 3.01141 3.82259 2.84624 3.53453ZM4.59687 10.0222C4.38988 10.1834 4.18153 10.2833 4.05782 10.4471C3.98223 10.5472 3.98827 10.7667 4.04429 10.8947C4.12448 11.0782 4.25375 10.9674 4.41323 10.9167C4.79142 10.7964 5.04647 10.5458 5.29485 10.2757C5.36764 10.1967 5.4402 9.99212 5.40979 9.96624C5.30385 9.8761 5.15056 9.78988 5.01943 9.79571C4.8874 9.80161 4.76041 9.91921 4.59687 10.0222ZM7.54892 0.548143C7.33151 0.513892 7.14737 0.504288 6.96606 0.522616C6.93208 0.526035 6.86871 0.659846 6.88801 0.701522C7.02113 0.988702 7.46421 1.19912 7.78097 1.12573C7.83872 1.11241 7.87845 1.02137 7.92652 0.966176C7.77369 0.872675 7.87289 0.553574 7.54892 0.548143ZM0.615031 6.45225C0.619975 6.25124 0.606927 6.07901 0.552697 5.92089C0.532919 5.86329 0.365135 5.79163 0.349757 5.80769C0.237375 5.92501 0.146271 6.06273 0.0491339 6.19447C-0.105896 6.40475 0.149766 6.42226 0.213759 6.52304C0.342004 6.72489 0.469076 6.61613 0.615031 6.45225ZM6.27886 0.0332494C6.10791 0.114062 6.00562 0.194791 5.90326 0.275595C6.05018 0.442835 6.20307 0.538271 6.42166 0.374803C6.66373 0.193835 6.40792 0.138634 6.27886 0.0332494Z" fill="black"/>
</svg>
