<svg width="54" height="59" viewBox="0 0 54 59" fill="none" xmlns="http://www.w3.org/2000/svg">
<g clip-path="url(#clip0_553_979)">
<path d="M26.4782 18.3866L26.6608 17.045C26.3217 17.7553 26.1913 18.597 26.2956 19.5965C26.4 20.7013 27.0261 21.8061 27.9652 22.8845L26.7391 20.7276L26.4782 18.3866Z" fill="white"/>
<path d="M53.1131 44.2961C53.0609 44.0593 52.9826 43.8226 52.9044 43.6122C52.6435 42.9809 52.2261 42.4811 51.8087 42.1128L51.4957 41.692C51.4957 41.692 51.3391 41.6657 51.1044 41.613C51.0522 41.5867 50.9739 41.5341 50.9217 41.5078C51.2609 41.2711 51.2609 40.9817 50.0348 41.008C50.0087 40.9817 49.9565 40.9817 49.9304 40.9817C50.0609 40.6135 50.4 39.3509 50.4522 37.0361L50.687 35.0896L49.6174 28.5925L49.5131 28.3295C49.1217 26.4356 48.5739 24.3313 47.8435 21.9376C43.5913 8.18059 31.7739 13.5729 31.7739 13.5729L31.6174 13.7307C26.9217 9.04862 21.4174 12.4681 21.4174 12.4681C21.4174 12.4681 19.5913 9.75883 16.4348 6.44452C9.54783 -0.999529 4.59131 0.42089 2.58262 2.15696C1.77392 2.84086 1.14783 3.78781 0.860877 4.83997C0.730442 5.33975 0.678269 5.83953 0.730442 6.39191C0.730442 6.41821 0.730442 6.44452 0.756529 6.47082C1.06957 7.78603 1.46088 8.54884 2.26957 9.5747C2.66088 10.0482 3.39131 10.8373 4.20001 11.679C5.08696 12.5997 6.02609 13.5992 6.52175 14.2568C7.12175 15.0459 8.29566 16.1507 9.13044 16.8872C11.2957 19.4913 12.8348 21.8587 13.9304 23.8052L14.8696 25.5939C14.9478 25.7254 15 25.8832 15.0783 26.0147L16.2261 29.2501L16.1217 29.3554L15.9652 29.408C15.0522 29.2501 8.24349 28.198 4.66957 30.3023L4.27827 30.2497L2.97392 31.5649L2.89566 32.1699L2.71305 33.5114L2.97392 35.8525L4.20001 38.0094L4.38262 38.3513L5.29566 39.0879C5.6087 39.3509 5.92175 39.6139 6.26088 39.877L7.46088 40.8765L10.8 42.823L11.4522 43.1124C14.1652 44.5328 17.1131 45.7954 19.8522 46.8476L21.2609 47.4525L26.3217 49.1886L27.6261 49.5569C28.7478 49.8988 29.4261 50.1093 29.4261 50.1093C29.4261 50.1093 29.3739 50.7406 29.3217 51.5823L29.087 52.0295L29.2435 53.0816C29.2435 53.371 29.2174 53.6603 29.2174 53.9496C29.2174 54.4757 29.3478 55.0807 29.6348 55.6594L29.6609 55.8961L29.8174 56.0277C30.6 57.2903 32.1391 58.3424 34.5652 58.132C38.2957 57.8163 53.2696 50.5827 53.2696 45.4008C53.2174 45.0326 53.1913 44.638 53.1131 44.2961Z" fill="white"/>
<path d="M31.8261 48.8204C31.8261 48.8204 29.1391 53.5025 31.5652 54.9755C33.9913 56.4485 40.7739 52.6871 45.2087 49.5832C54 42.7441 48.0261 41.3237 45.8609 41.9287C47.9739 40.7976 51.5217 41.6657 51.5217 41.6657L53.1913 43.9541L52.8783 45.7428L52.1739 47.4789L48.7826 50.5827L42.5217 54.7651L36 57.7638L31.8 57.6585L29.6348 55.9225L29.0348 52.0558L30.3913 49.4517L31.8261 48.8204Z" fill="#D1D3D4"/>
<path d="M5.89565 30.539C5.89565 30.539 4.06956 31.4596 4.06956 33.1431C4.06956 34.8265 4.17391 36.4048 9.57391 39.2456C18.9652 44.4012 30.5478 46.979 30.5478 46.979C30.5478 46.979 31.9043 45.9532 35.7391 45.4534C35.5043 45.6112 34.3304 45.8479 32.6609 47.584C30.9913 49.3201 29.9739 50.2933 29.9739 50.2933L26.2956 49.2149L21.2348 47.4788L16.0696 45.2956L10.7739 42.8493L7.43478 40.9028L4.35652 38.3513L2.94782 35.8524L2.68695 33.5113L2.94782 31.5648L4.25217 30.2496L5.89565 30.539Z" fill="#D1D3D4"/>
<path d="M47.3739 22.8319C47.3739 22.8319 48.1305 26.9616 48.5218 32.4592C48.9131 37.9567 46.6957 41.6393 46.6957 41.6393L49.6435 41.1132L50.087 40.1137L50.687 35.0633L49.6174 28.5662L47.3739 22.8319Z" fill="#D1D3D4"/>
<path d="M14.0348 29.9603C14.0348 29.9603 16.4609 30.0655 18.4696 31.0387C20.4783 32.012 21.1565 30.0129 19.8261 27.777C18.5217 25.5412 13.2 17.0187 8.92174 13.2046C4.64348 9.39049 2.26956 8.41724 2.06087 5.91835C1.85217 3.41947 3.52174 2.3147 3.52174 2.3147C3.52174 2.3147 2.16521 2.3147 1.51304 3.68251C0.83478 5.05032 0.495649 5.15554 0.782606 6.47074C1.09565 7.78594 1.48695 8.54876 2.29565 9.57462C3.10435 10.6005 5.58261 12.9941 6.54782 14.2567C7.51304 15.5193 10.0435 17.6763 10.0435 17.6763L13.0174 22.069L15.0261 25.9357L16.2261 29.3553L14.0348 29.9603Z" fill="#D1D3D4"/>
<path d="M15.6261 29.5395C15.6261 29.5132 15.6 29.4869 15.6 29.4605C15.5739 29.4079 15.5478 29.3027 15.5217 29.1712C15.4435 28.9345 15.313 28.5399 15.1304 28.0664C14.7652 27.0932 14.1391 25.6991 13.1739 23.9893C11.2174 20.5698 7.85217 15.8613 2.21739 10.8899L2.1913 10.8636L2.16522 10.8373C0.652174 9.23273 0 7.54926 0 5.99733C0 4.18235 0.886957 2.63041 2.11304 1.57824C3.07826 0.762818 4.5913 0 6.57391 0C9.36522 0 12.913 1.47303 17.0087 5.89211C21.5217 10.6531 25.2783 16.4926 25.2783 16.4926C25.513 16.8346 25.4087 17.3081 25.0435 17.5448C24.7043 17.7815 24.2348 17.6763 24 17.3081C24 17.3081 23.9478 17.2292 23.8435 17.045C23.7391 16.8872 23.5826 16.6242 23.3739 16.3348C22.9565 15.7298 22.3565 14.8618 21.6261 13.8359C20.1391 11.8631 18.1043 9.25903 15.913 6.94427C11.9739 2.70932 8.81739 1.52564 6.57391 1.52564C4.98261 1.52564 3.8087 2.13063 3.10435 2.73562C2.13913 3.55105 1.51304 4.70843 1.51304 5.99733C1.51304 7.1021 1.95652 8.36469 3.23478 9.75881C14.7652 19.9648 17.0609 29.066 17.087 29.1712C17.1913 29.5921 16.9304 29.9866 16.5391 30.0918C16.487 30.1181 16.4087 30.1181 16.3565 30.1181C16.0174 30.1181 15.7043 29.8814 15.6261 29.5395Z" fill="black"/>
<path d="M32.6087 16.0455C31.4608 14.362 30.2608 13.3624 29.1391 12.7574C28.0174 12.1525 26.9217 11.942 25.9565 11.942C23.9739 11.942 22.4608 12.8101 22.3304 12.889C21.9652 13.1257 21.4956 12.9942 21.2869 12.6522C21.0521 12.284 21.1826 11.8105 21.5217 11.6001C21.6 11.5738 23.3739 10.4164 25.9565 10.4164C27.1304 10.4164 28.4869 10.6794 29.8435 11.4159C31.2 12.1525 32.5826 13.3624 33.8608 15.2037C34.0956 15.5457 34.0174 16.0191 33.6782 16.2559C33.5478 16.3611 33.3913 16.3874 33.2348 16.3874C33 16.3611 32.7652 16.2559 32.6087 16.0455Z" fill="black"/>
<path d="M29.7913 57.2902C28.8783 56.3169 28.4609 55.0807 28.4348 54.0022C28.4348 52.7659 28.513 51.4507 28.5913 50.6879C26.1391 49.9514 16.8261 47.0316 9.86088 43.1386C7.17392 41.6393 4.82609 39.9821 3.33914 38.1672C2.47827 37.1413 1.90436 36.0102 1.77392 34.8265C1.74783 34.5898 1.74783 34.3531 1.74783 34.1163C1.74783 32.9063 2.08696 31.8805 2.68696 31.0914C3.28696 30.2759 4.12175 29.6972 5.03479 29.3027C6.86088 28.4873 9.07827 28.2768 11.087 28.2768C13.8783 28.2768 16.2 28.6977 16.2261 28.724C16.6435 28.8029 16.9044 29.1975 16.8261 29.6183C16.7478 30.0392 16.3565 30.3022 15.9391 30.2233C15.9391 30.2233 15.8087 30.197 15.5478 30.1707C15.287 30.1444 14.9478 30.0918 14.4783 30.0392C13.5913 29.934 12.3652 29.8288 11.0609 29.8288C9.65218 29.8288 8.13914 29.9603 6.83479 30.3022C5.53044 30.6442 4.48696 31.2229 3.88696 32.0383C3.49566 32.5907 3.23479 33.2483 3.23479 34.1689C3.23479 34.3531 3.23479 34.5372 3.26088 34.7213C3.33914 35.4052 3.65218 36.1417 4.22609 36.9309C4.80001 37.6937 5.6087 38.4828 6.60001 39.2719C8.58261 40.8239 11.2696 42.3232 14.113 43.6647C19.7739 46.3477 26.0087 48.3468 28.513 49.1096C29.2174 49.3201 29.6087 49.4516 29.6087 49.4516L30.2087 49.6357L30.1565 50.267C30.1565 50.267 30.1044 50.7668 30.0522 51.5033C30 52.2398 29.9478 53.1868 29.9478 54.0811C29.9478 54.7387 30.2348 55.633 30.887 56.3169C31.5391 57.0009 32.5044 57.5269 33.9652 57.5269C34.1217 57.5269 34.3044 57.5269 34.487 57.5006C34.9826 57.4743 35.8696 57.2376 36.9391 56.8693C38.0087 56.5011 39.287 55.975 40.6174 55.3437C43.3043 54.0811 46.2522 52.3976 48.5478 50.6353C50.087 49.4516 51.313 48.2416 51.9391 47.1631C52.3044 46.5581 52.487 45.9795 52.487 45.5323C52.487 45.4797 52.487 45.4271 52.487 45.4008C52.487 43.9803 51.8609 43.2175 51.1826 42.6651C50.5043 42.1391 49.7739 41.9286 49.7217 41.9286L48.8609 41.7182L49.2 40.8765V40.8502C49.2 40.8239 49.2261 40.7712 49.2522 40.6923C49.3044 40.5345 49.3565 40.2715 49.4348 39.9295C49.5652 39.2193 49.7217 38.1145 49.7217 36.5363C49.7217 33.5376 49.2 28.9081 47.1652 22.2532C46.0174 18.4128 44.3217 16.2296 42.5217 14.967C40.7217 13.6781 38.7652 13.3098 37.0174 13.2835C34.4348 13.2835 32.3478 14.1515 32.1391 14.2568C32.113 14.2568 32.113 14.2568 32.113 14.2568C31.7217 14.4409 31.2783 14.2568 31.1217 13.8885C30.9391 13.4939 31.1217 13.0468 31.487 12.889C31.5391 12.8626 33.913 11.7842 37.0174 11.7842C39 11.7842 41.2696 12.2313 43.3826 13.7307C45.4957 15.23 47.3739 17.7552 48.6 21.7271C50.687 28.5136 51.2348 33.3009 51.2348 36.4837C51.2348 38.5091 51 39.8769 50.8174 40.6397C50.9739 40.6923 51.1304 40.7712 51.313 40.8765C51.9913 41.2447 52.8 41.8497 53.3739 42.8493C53.7391 43.5069 54 44.3486 54 45.3482C54 45.4008 54 45.4534 54 45.506C54 46.7686 53.3478 47.9523 52.4087 49.057C51.4696 50.1881 50.1913 51.2929 48.7565 52.345C45.8609 54.4494 42.287 56.3169 39.3391 57.5532C37.3565 58.3687 35.713 58.8947 34.6174 59C34.4087 59.0263 34.1739 59.0263 33.9652 59.0263H33.9391C32.113 59 30.6783 58.2898 29.7913 57.2902Z" fill="black"/>
<path d="M49.9304 41.876C48.1304 41.2447 45.7565 41.9286 45.7565 41.9286C45.7565 41.9286 48.5739 40.403 50.0609 41.008C52.3565 40.9554 50.4 41.9286 49.9304 41.876Z" fill="black"/>
<path d="M29.9217 53.5551C30.4174 48.5573 36.0261 45.3745 36.0261 45.3745C36.0261 45.3745 32.0348 46.7949 29.6609 49.9514C29.5304 50.3197 29.4261 51.8453 29.4261 51.8453C29.4261 51.8453 29.8174 54.3442 29.9217 53.5551Z" fill="black"/>
<path d="M22.6435 12.7312C22.6435 12.7312 23.8696 14.7566 24.0261 17.4133C24.1565 17.6501 25.8 20.5698 25.7739 17.0188C25.7478 13.494 22.6435 12.7312 22.6435 12.7312Z" fill="#D1D3D4"/>
<path d="M32.9478 13.9412C33.1826 15.1775 32.687 16.1244 32.687 16.1244C32.687 16.1244 34.1739 18.0972 34.1739 16.2033C34.1478 14.3094 33.0522 14.0727 32.9478 13.9412Z" fill="#D1D3D4"/>
<path d="M34.7218 19.5965C34.7739 18.9389 36.4957 18.8863 37.1478 20.1226C37.8 21.3589 36.1826 22.7004 35.9739 22.0428C35.7652 21.3852 36.0522 21.3852 35.6348 20.7276C35.1913 20.0963 34.6696 20.2541 34.7218 19.5965Z" fill="#D1D3D4"/>
<path d="M41.687 18.86C41.713 18.3076 43.1478 18.2813 43.6956 19.2808C44.2435 20.2804 42.913 21.4115 42.7304 20.8591C42.5478 20.3067 42.8087 20.3067 42.4435 19.7806C42.0783 19.2545 41.6609 19.4123 41.687 18.86Z" fill="#D1D3D4"/>
</g>
<defs>
<clipPath id="clip0_553_979">
<rect width="54" height="59" fill="white"/>
</clipPath>
</defs>
</svg>
