<svg width="20" height="20" viewBox="0 0 20 20" fill="none" xmlns="http://www.w3.org/2000/svg">
<path d="M5.21777 1.19836C6.39688 0.313174 7.29083 0.431203 7.66797 0.684692C7.85946 0.813602 7.93207 0.973491 7.93262 1.1095C7.9331 1.24276 7.86372 1.45634 7.56152 1.68372L7.54785 1.69446L7.53516 1.7052C7.43013 1.79638 7.30262 1.88455 7.14941 1.98547C7.00497 2.08062 6.82828 2.19247 6.66699 2.31262C6.34127 2.55527 5.97515 2.90232 5.8623 3.45032L5.78418 3.83118L6.13379 4.0011C6.77171 4.31124 7.51247 4.22522 8.21191 4.06946C8.57212 3.98924 8.95561 3.88209 9.34375 3.77356C9.73641 3.66377 10.14 3.5507 10.5615 3.45325C12.2325 3.06693 14.134 2.92736 16.2021 4.24817L16.2109 4.25403C18.3023 5.52504 19.7984 8.35562 19.4492 11.2814C19.2312 12.7824 18.7057 14.3178 17.9111 15.5441C17.1155 16.7719 16.0787 17.6499 14.8486 17.9327H14.8477C11.6951 18.6626 8.47136 19.2096 5.32715 19.4825H5.32422C4.65776 19.5449 4.24155 19.4345 3.99121 19.2892C3.74834 19.1482 3.62372 18.9529 3.57031 18.7511C3.51402 18.5382 3.53777 18.3173 3.60352 18.1573C3.66705 18.0029 3.72442 17.9919 3.70801 17.9962C5.32436 17.8135 7.5322 17.5755 9.6582 17.1163C11.7752 16.6591 13.8967 15.9672 15.2783 14.8312L15.3086 14.8058L15.335 14.7755C17.352 12.4935 18.031 10.1536 17.2002 8.34973C16.3661 6.53876 14.1533 5.5725 11.0879 5.71399H11.084C10.3105 5.75672 9.54593 5.65002 8.73633 5.5343C8.04275 5.43517 7.3101 5.32832 6.56738 5.33606L6.24805 5.3468L6.2373 5.34778C5.93477 5.37152 5.68058 5.40966 5.48828 5.47473C5.39277 5.50706 5.27775 5.55708 5.17773 5.6427C5.06775 5.73696 4.96509 5.88601 4.9541 6.08411C4.94422 6.26469 5.01542 6.40625 5.07227 6.49133C5.13059 6.57858 5.20257 6.65021 5.26562 6.7052C5.39188 6.81527 5.55518 6.92163 5.71484 7.01868C5.87829 7.11801 6.06605 7.22408 6.24902 7.32825C6.43551 7.43442 6.62193 7.54186 6.79785 7.65149C7.12384 7.85465 7.35527 8.03154 7.47754 8.1759L7.52344 8.23645C7.70665 8.51133 7.80672 8.87157 7.81055 9.22864C7.81444 9.5916 7.71873 9.89235 7.58008 10.0714C7.46191 10.224 7.30392 10.3086 7.04492 10.2648C6.78245 10.2203 6.39225 10.0367 5.87793 9.5675L5.65039 9.34875C4.47846 8.16187 3.45889 7.49459 2.64355 7.01086C2.22634 6.76335 1.90389 6.58666 1.61523 6.40149C1.33562 6.22212 1.14039 6.06619 1 5.89563L0.990234 5.88489L0.885742 5.75891C0.658955 5.47084 0.553767 5.2295 0.516602 5.03723C0.475823 4.82612 0.511559 4.64448 0.601562 4.47668C0.796701 4.113 1.27568 3.77943 1.90625 3.56653L1.91992 3.56165L1.93359 3.55579C2.6844 3.25159 3.22302 2.8466 3.71289 2.42981C4.21158 2.00551 4.6251 1.60425 5.2002 1.21106L5.20898 1.20422L5.21777 1.19836Z" fill="#FDE56B" stroke="#111111"/>
</svg>
