<svg width="36" height="36" viewBox="0 0 36 36" fill="none" xmlns="http://www.w3.org/2000/svg">
<rect x="0.75" y="0.75" width="34.5" height="34.5" rx="17.25" fill="url(#paint0_linear_184_1546)"/>
<rect x="0.75" y="0.75" width="34.5" height="34.5" rx="17.25" stroke="black" stroke-width="1.5"/>
<path d="M22.746 10.2264C23.6181 9.71527 24.5967 9.7707 25.2602 10.3972C25.9024 11.0039 26.0671 11.9739 25.7386 12.9266L25.6467 13.1944L25.636 13.2236L25.6242 13.2518C25.253 14.0955 24.435 15.3078 23.6178 16.4493C22.816 17.5694 21.8704 18.8155 21.3554 19.5287C20.2105 21.1137 18.6701 23.3418 17.3475 24.8329C16.7874 25.4644 16.1625 25.8458 15.4681 25.8855C14.7829 25.9247 14.2014 25.6202 13.7483 25.2579C13.2955 24.8958 12.8956 24.4169 12.5537 23.966C12.3802 23.7373 12.2139 23.5047 12.0589 23.2879C11.9014 23.0678 11.7571 22.8665 11.6192 22.6843C11.3037 22.2675 10.5286 21.3005 10.0884 20.3225C9.87007 19.8373 9.68623 19.2494 9.75149 18.6681C9.82474 18.0166 10.201 17.4709 10.8838 17.1518C11.3362 16.9406 11.7912 16.8758 12.2328 16.9694C12.6619 17.0604 13.0095 17.2863 13.2864 17.533C13.8004 17.9912 14.2434 18.7028 14.5579 19.1406C14.7354 19.3878 14.885 19.5736 15.024 19.7022C15.1621 19.8301 15.241 19.8562 15.271 19.8612C15.285 19.8634 15.5808 19.9008 16.2546 19.0171C17.2041 17.7716 18.1904 16.2267 19.1585 14.8512C19.3377 14.5966 19.5722 14.2364 19.8504 13.8112C20.1246 13.3919 20.4351 12.9192 20.7535 12.4607C21.0708 12.0038 21.4043 11.5484 21.7271 11.166C22.0351 10.8011 22.3873 10.4368 22.746 10.2264Z" fill="white" stroke="#111111" stroke-width="1.5"/>
<defs>
<linearGradient id="paint0_linear_184_1546" x1="18" y1="3.74488e-08" x2="18" y2="36" gradientUnits="userSpaceOnUse">
<stop stop-color="#A5F3FC"/>
<stop offset="1" stop-color="#22D3EE"/>
</linearGradient>
</defs>
</svg>
