<svg width="297" height="575" viewBox="0 0 297 575" fill="none" xmlns="http://www.w3.org/2000/svg">
<path fill-rule="evenodd" clip-rule="evenodd" d="M47.2705 7.5052C46.4764 11.7545 48.0738 14.7069 50.6227 19.0881C55.43 20.3901 58.9673 21.8587 63.0414 22.3983C65.2277 18.0556 67.7441 15.7201 73.7788 13.7083C63.6309 9.37862 57.4851 8.30576 47.2705 7.5052Z" fill="#FF5257"/>
<path fill-rule="evenodd" clip-rule="evenodd" d="M68.5016 111.194C70.0818 109.228 70.0724 106.784 69.9666 103.067C67.8486 99.9295 66.4309 97.3371 64.4806 94.9922C62.1574 96.3113 60.2173 96.3479 56.5537 94.4387C60.5888 101.941 63.4595 105.622 68.5016 111.194Z" fill="#FFC700"/>
<path fill-rule="evenodd" clip-rule="evenodd" d="M99.4062 101.957C105.601 100.309 109.25 99.7982 115.376 99.9658C116.136 97.2818 116.261 94.9672 115.207 92.8699C111.193 92.3991 105.963 92.8288 98.895 93.9835C100.929 97.0829 101.313 99.0592 99.4062 101.957Z" fill="#F74F9E"/>
<path fill-rule="evenodd" clip-rule="evenodd" d="M260.27 521.505C259.476 525.754 261.074 528.706 263.623 533.088C268.43 534.39 271.967 535.858 276.041 536.398C278.228 532.055 280.744 529.72 286.779 527.708C276.631 523.378 270.485 522.305 260.27 521.505Z" fill="#FF5257"/>
<path fill-rule="evenodd" clip-rule="evenodd" d="M83.5364 532.09C80.2743 533.295 78.9574 535.452 77.082 538.763C78.3142 542.234 78.8711 544.991 80.3016 547.708C84.2429 547.32 86.9549 547.935 90.9998 550.839C89.482 542.883 87.5014 538.682 83.5364 532.09Z" fill="#007AFF"/>
<path fill-rule="evenodd" clip-rule="evenodd" d="M173.406 542.957C179.601 541.309 183.25 540.798 189.376 540.966C190.136 538.282 190.261 535.967 189.207 533.87C185.193 533.399 179.963 533.829 172.895 534.983C174.929 538.083 175.313 540.059 173.406 542.957Z" fill="#F74F9E"/>
<path fill-rule="evenodd" clip-rule="evenodd" d="M258.406 512.957C264.601 511.309 268.25 510.798 274.376 510.966C275.136 508.282 275.261 505.967 274.207 503.87C270.193 503.399 264.963 503.829 257.895 504.983C259.929 508.083 260.313 510.059 258.406 512.957Z" fill="#F74F9E"/>
<path fill-rule="evenodd" clip-rule="evenodd" d="M214.353 550.077C215.996 547.887 215.914 545.105 215.691 540.873C213.319 537.241 211.717 534.249 209.549 531.524C207.087 532.956 205 532.941 201 530.661C205.564 539.316 208.762 543.589 214.353 550.077Z" fill="#FFC700"/>
<path fill-rule="evenodd" clip-rule="evenodd" d="M24.3143 566.659C28.2018 563.596 30.7524 562.163 35.6174 560.589C34.6841 558.202 33.4655 556.293 31.4522 554.888C28.0592 555.627 24.2308 557.435 19.384 560.344C22.7299 562.286 24.1519 563.78 24.3143 566.659Z" fill="#61BA47"/>
<path fill-rule="evenodd" clip-rule="evenodd" d="M26.0399 552.401C27.7261 547.748 29.1372 545.185 32.4396 541.282C30.3877 539.747 28.3451 538.767 25.8938 538.636C23.4013 541.054 21.1029 544.61 18.5196 549.637C22.3869 549.523 24.383 550.041 26.0399 552.401Z" fill="#61BA47"/>
<path fill-rule="evenodd" clip-rule="evenodd" d="M12.4844 319.505C11.6903 323.754 13.2876 326.706 15.8365 331.088C20.6439 332.39 24.1812 333.858 28.2553 334.398C30.4416 330.055 32.958 327.72 38.9927 325.708C28.8448 321.378 22.699 320.305 12.4844 319.505Z" fill="#FF5257"/>
<path fill-rule="evenodd" clip-rule="evenodd" d="M247.27 274.505C246.476 278.755 248.074 281.707 250.623 286.088C255.43 287.39 258.967 288.859 263.041 289.398C265.228 285.056 267.744 282.72 273.779 280.708C263.631 276.379 257.485 275.306 247.27 274.505Z" fill="#FF5257"/>
<path fill-rule="evenodd" clip-rule="evenodd" d="M52.2705 142.505C51.4764 146.755 53.0738 149.707 55.6227 154.088C60.43 155.39 63.9673 156.859 68.0414 157.398C70.2277 153.056 72.7441 150.72 78.7788 148.708C68.6309 144.379 62.4851 143.306 52.2705 142.505Z" fill="#FF5257"/>
<path fill-rule="evenodd" clip-rule="evenodd" d="M222.406 309.957C228.601 308.309 232.25 307.798 238.376 307.966C239.136 305.282 239.261 302.967 238.207 300.87C234.193 300.399 228.963 300.829 221.895 301.983C223.929 305.083 224.313 307.059 222.406 309.957Z" fill="#F74F9E"/>
<path fill-rule="evenodd" clip-rule="evenodd" d="M36.4062 282.957C42.6013 281.309 46.2502 280.798 52.3757 280.966C53.1365 278.282 53.2612 275.967 52.2067 273.87C48.1928 273.399 42.9625 273.829 35.895 274.983C37.9293 278.083 38.3128 280.059 36.4062 282.957Z" fill="#F74F9E"/>
<path fill-rule="evenodd" clip-rule="evenodd" d="M25.4062 115.957C31.6013 114.309 35.2502 113.798 41.3757 113.966C42.1365 111.282 42.2612 108.967 41.2067 106.87C37.1928 106.399 31.9625 106.829 24.895 107.983C26.9293 111.083 27.3128 113.059 25.4062 115.957Z" fill="#F74F9E"/>
<path fill-rule="evenodd" clip-rule="evenodd" d="M190.353 225.077C191.996 222.887 191.914 220.105 191.691 215.873C189.319 212.241 187.717 209.249 185.549 206.524C183.087 207.956 181 207.941 177 205.661C181.564 214.316 184.762 218.589 190.353 225.077Z" fill="#FFC700"/>
<path fill-rule="evenodd" clip-rule="evenodd" d="M243.353 160.077C244.996 157.887 244.914 155.105 244.691 150.873C242.319 147.241 240.717 144.249 238.549 141.524C236.087 142.956 234 142.941 230 140.661C234.564 149.316 237.762 153.589 243.353 160.077Z" fill="#FFC700"/>
<path fill-rule="evenodd" clip-rule="evenodd" d="M292.353 92.0775C293.996 89.8871 293.914 87.1054 293.691 82.8728C291.319 79.2409 289.717 76.2493 287.549 73.5238C285.087 74.9564 283 74.9411 279 72.6609C283.564 81.3158 286.762 85.5891 292.353 92.0775Z" fill="#FFC700"/>
<path fill-rule="evenodd" clip-rule="evenodd" d="M22.5367 369.251C19.2745 370.456 17.9576 372.613 16.0823 375.924C17.3144 379.394 17.8713 382.152 19.3018 384.868C23.2431 384.481 25.9551 385.096 30 388C28.4823 380.043 26.5017 375.842 22.5367 369.251Z" fill="#007AFF"/>
<path fill-rule="evenodd" clip-rule="evenodd" d="M210.537 276.09C207.275 277.295 205.958 279.452 204.082 282.763C205.314 286.234 205.871 288.991 207.302 291.708C211.243 291.32 213.955 291.935 218 294.839C216.482 286.883 214.502 282.681 210.537 276.09Z" fill="#007AFF"/>
<path fill-rule="evenodd" clip-rule="evenodd" d="M140.333 393.957C146.529 392.309 150.177 391.798 156.303 391.966C157.064 389.282 157.188 386.967 156.134 384.87C152.12 384.399 146.89 384.829 139.822 385.983C141.857 389.083 142.24 391.059 140.333 393.957Z" fill="#F74F9E"/>
<path fill-rule="evenodd" clip-rule="evenodd" d="M36.5367 479.09C33.2745 480.295 31.9576 482.452 30.0823 485.763C31.3144 489.234 31.8713 491.991 33.3018 494.708C37.2431 494.32 39.9551 494.935 44 497.839C42.4823 489.883 40.5017 485.681 36.5367 479.09Z" fill="#007AFF"/>
<path fill-rule="evenodd" clip-rule="evenodd" d="M268.314 336.659C272.202 333.596 274.752 332.163 279.617 330.589C278.684 328.202 277.466 326.293 275.452 324.888C272.059 325.627 268.231 327.435 263.384 330.344C266.73 332.286 268.152 333.78 268.314 336.659Z" fill="#61BA47"/>
</svg>
